<svg xmlns="http://www.w3.org/2000/svg" width="128" height="72" viewBox="0 0 128 72">
  <defs>
    <linearGradient id="body" x1="0" y1="0" x2="1" y2="1">
      <stop stop-color="#ff5968"/><stop offset="1" stop-color="#b90f32"/>
    </linearGradient>
  </defs>
  <g stroke-linejoin="round">
    <rect x="20" y="5" width="27" height="11" rx="4" fill="#171b22"/>
    <rect x="20" y="56" width="27" height="11" rx="4" fill="#171b22"/>
    <rect x="82" y="5" width="27" height="11" rx="4" fill="#171b22"/>
    <rect x="82" y="56" width="27" height="11" rx="4" fill="#171b22"/>
    <path d="M9 36 20 14l35-8 49 9 16 21-16 21-49 9-35-8Z" fill="url(#body)" stroke="#710b24" stroke-width="3"/>
    <path d="m48 15 35 3 14 18-14 18-35 3-12-21Z" fill="#202b3c" stroke="#9be6ff" stroke-width="2"/>
    <path d="M55 18v36M83 18v36" stroke="#6f859e" stroke-width="2"/>
    <path d="M106 25h13v22h-13" fill="#ffd346" stroke="#8f6410" stroke-width="2"/>
    <circle cx="23" cy="36" r="6" fill="#ffd346"/>
  </g>
</svg>

